<svg xmlns="http://www.w3.org/2000/svg" width="1120" height="510" viewBox="0 0 1120 510" role="img" aria-labelledby="contract-title contract-desc">
  <title id="contract-title">Worked localization and stable-compaction example</title>
  <desc id="contract-desc">Panel a follows input tokens [8, 5, 130, 7, -1, 262] through ownership filtering and page translation. With block size 64, two ranks, rank zero, interleave one, request zero and page table [11, 2, 7, 5], source columns zero, two and five survive. Local tokens [4, 65, 131] translate to physical slots [708, 129, 451]. Panel b shows validity bits [1,0,1,0,0,1] and the prefix-scan destinations zero, one and two. Source-order-preserving scatter produces [708,129,451,-1,-1,-1] with exact count three. In-range page values are translated verbatim, including negative page IDs; this example uses populated positive pages.</desc>
  <style>
    text { font: 14px Arial, Helvetica, sans-serif; fill: #171717; font-weight: 400; }
    .mono { font-family: ui-monospace, SFMono-Regular, Menlo, Consolas, monospace; }
    .small { font-size: 13px; }
    .muted { fill: #525252; }
    .blue { fill: #245a96; }
    .rule { fill: none; stroke: #d4d4d4; stroke-width: 1; }
    .edge { fill: none; stroke: #737373; stroke-width: 1; }
    .trace { fill: none; stroke: #245a96; stroke-width: 1; }
    .cell { fill: none; stroke: #a3a3a3; stroke-width: 1; }
    @media (prefers-color-scheme: dark) {
      text { fill: #e5e5e5; }
      .muted { fill: #a3a3a3; }
      .blue { fill: #8eb5de; }
      .rule { stroke: #404040; }
      .edge { stroke: #a3a3a3; }
      .trace { stroke: #8eb5de; }
      .cell { stroke: #737373; }
    }
  </style>
  <text x="32" y="23">(a) Ownership and translation</text>
  <text x="1088" y="23" class="small mono" text-anchor="end">block=64; D=2; rank=0; interleave=1; request=0; P=[11,2,7,5]</text>
  <text x="32" y="74">Global token  t</text>
  <rect class="cell" x="274" y="53" width="72" height="30"/>
  <text x="310" y="74" class="mono" text-anchor="middle">8</text>
  <rect class="cell" x="414" y="53" width="72" height="30"/>
  <text x="450" y="74" class="mono" text-anchor="middle">5</text>
  <rect class="cell" x="554" y="53" width="72" height="30"/>
  <text x="590" y="74" class="mono" text-anchor="middle">130</text>
  <rect class="cell" x="694" y="53" width="72" height="30"/>
  <text x="730" y="74" class="mono" text-anchor="middle">7</text>
  <rect class="cell" x="834" y="53" width="72" height="30"/>
  <text x="870" y="74" class="mono" text-anchor="middle">-1</text>
  <rect class="cell" x="974" y="53" width="72" height="30"/>
  <text x="1010" y="74" class="mono" text-anchor="middle">262</text>
  <text x="32" y="124">Owner  t mod 2</text>
  <path class="trace" d="M310 83V105"/>
  <path class="trace" d="M307 101L310 105L313 101"/>
  <text x="310" y="124" class="mono muted" text-anchor="middle">0</text>
  <path class="edge" d="M450 83V105"/>
  <path class="edge" d="M447 101L450 105L453 101"/>
  <text x="450" y="124" class="mono muted" text-anchor="middle">1</text>
  <path class="edge" d="M450 136V146"/>
  <path class="edge" d="M446 146L454 154M454 146L446 154"/>
  <path class="trace" d="M590 83V105"/>
  <path class="trace" d="M587 101L590 105L593 101"/>
  <text x="590" y="124" class="mono muted" text-anchor="middle">0</text>
  <path class="edge" d="M730 83V105"/>
  <path class="edge" d="M727 101L730 105L733 101"/>
  <text x="730" y="124" class="mono muted" text-anchor="middle">1</text>
  <path class="edge" d="M730 136V146"/>
  <path class="edge" d="M726 146L734 154M734 146L726 154"/>
  <path class="edge" d="M870 83V105"/>
  <path class="edge" d="M867 101L870 105L873 101"/>
  <text x="870" y="124" class="mono muted" text-anchor="middle">invalid</text>
  <path class="edge" d="M870 136V146"/>
  <path class="edge" d="M866 146L874 154M874 146L866 154"/>
  <path class="trace" d="M1010 83V105"/>
  <path class="trace" d="M1007 101L1010 105L1013 101"/>
  <text x="1010" y="124" class="mono muted" text-anchor="middle">0</text>
  <text x="32" y="183">Local token  ℓ = ⌊t / 2⌋</text>
  <path class="trace" d="M310 136V157"/>
  <path class="trace" d="M307 153L310 157L313 153"/>
  <rect class="cell" x="274" y="162" width="72" height="30"/>
  <text x="310" y="183" class="mono" text-anchor="middle">4</text>
  <path class="trace" d="M590 136V157"/>
  <path class="trace" d="M587 153L590 157L593 153"/>
  <rect class="cell" x="554" y="162" width="72" height="30"/>
  <text x="590" y="183" class="mono" text-anchor="middle">65</text>
  <path class="trace" d="M1010 136V157"/>
  <path class="trace" d="M1007 153L1010 157L1013 153"/>
  <rect class="cell" x="974" y="162" width="72" height="30"/>
  <text x="1010" y="183" class="mono" text-anchor="middle">131</text>
  <text x="32" y="228" class="small">P[⌊ℓ / 64⌋] × 64 + ℓ mod 64</text>
  <path class="trace" d="M310 192V207"/>
  <path class="trace" d="M307 203L310 207L313 203"/>
  <text x="310" y="228" class="small mono" text-anchor="middle">11 × 64 + 4</text>
  <path class="trace" d="M590 192V207"/>
  <path class="trace" d="M587 203L590 207L593 203"/>
  <text x="590" y="228" class="small mono" text-anchor="middle">2 × 64 + 1</text>
  <path class="trace" d="M1010 192V207"/>
  <path class="trace" d="M1007 203L1010 207L1013 203"/>
  <text x="1010" y="228" class="small mono" text-anchor="middle">7 × 64 + 3</text>
  <text x="32" y="268">Physical slot</text>
  <rect class="cell" x="274" y="248" width="72" height="30"/>
  <text x="310" y="268" class="mono" text-anchor="middle">708</text>
  <path class="trace" d="M310 234V246"/>
  <path class="trace" d="M307 242L310 246L313 242"/>
  <rect class="cell" x="554" y="248" width="72" height="30"/>
  <text x="590" y="268" class="mono" text-anchor="middle">129</text>
  <path class="trace" d="M590 234V246"/>
  <path class="trace" d="M587 242L590 246L593 242"/>
  <rect class="cell" x="974" y="248" width="72" height="30"/>
  <text x="1010" y="268" class="mono" text-anchor="middle">451</text>
  <path class="trace" d="M1010 234V246"/>
  <path class="trace" d="M1007 242L1010 246L1013 242"/>
  <text x="32" y="310">(b) Stable compaction</text>
  <text x="32" y="344">Valid mapping  v</text>
  <text x="310" y="344" class="mono" text-anchor="middle">1</text>
  <text x="450" y="344" class="mono" text-anchor="middle">0</text>
  <text x="590" y="344" class="mono" text-anchor="middle">1</text>
  <text x="730" y="344" class="mono" text-anchor="middle">0</text>
  <text x="870" y="344" class="mono" text-anchor="middle">0</text>
  <text x="1010" y="344" class="mono" text-anchor="middle">1</text>
  <text x="32" y="381" class="small">Destination  cumsum(v) − 1</text>
  <text x="310" y="381" class="mono" text-anchor="middle">0</text>
  <text x="450" y="381" class="mono muted" text-anchor="middle">—</text>
  <text x="590" y="381" class="mono" text-anchor="middle">1</text>
  <text x="730" y="381" class="mono muted" text-anchor="middle">—</text>
  <text x="870" y="381" class="mono muted" text-anchor="middle">—</text>
  <text x="1010" y="381" class="mono" text-anchor="middle">2</text>
  <path class="trace" d="M310 391V427"/>
  <path class="trace" d="M307 423L310 427L313 423"/>
  <path class="trace" d="M590 391C590 409.0 450 409.0 450 427"/>
  <path class="trace" d="M447 423L450 427L453 423"/>
  <path class="trace" d="M1010 391C1010 409.0 590 409.0 590 427"/>
  <path class="trace" d="M587 423L590 427L593 423"/>
  <text x="32" y="453">Output</text>
  <rect class="trace" x="274" y="432" width="72" height="30"/>
  <text x="310" y="453" class="mono" text-anchor="middle">708</text>
  <rect class="trace" x="414" y="432" width="72" height="30"/>
  <text x="450" y="453" class="mono" text-anchor="middle">129</text>
  <rect class="trace" x="554" y="432" width="72" height="30"/>
  <text x="590" y="453" class="mono" text-anchor="middle">451</text>
  <rect class="cell" x="694" y="432" width="72" height="30"/>
  <text x="730" y="453" class="mono muted" text-anchor="middle">-1</text>
  <rect class="cell" x="834" y="432" width="72" height="30"/>
  <text x="870" y="453" class="mono muted" text-anchor="middle">-1</text>
  <rect class="cell" x="974" y="432" width="72" height="30"/>
  <text x="1010" y="453" class="mono muted" text-anchor="middle">-1</text>
  <path class="trace" d="M274 469V475H626V469"/>
  <path class="rule" d="M694 469V475H1046V469"/>
  <text x="450" y="492" class="small" text-anchor="middle">valid prefix; count = 3</text>
  <text x="870" y="492" class="small muted" text-anchor="middle">padding</text>
</svg>
